<?xml version="1.0" encoding="UTF-8"?><svg id="a" xmlns="http://www.w3.org/2000/svg" width="423.33mm" height="423.33mm" viewBox="0 0 1200 1200"><circle cx="600" cy="600" r="600" fill="#f4f4f6"/><circle cx="596.9" cy="597.6" r="472.5" fill="#f4f4f6"/><g><path d="M816.44,602.21H375.44c-13.31,0-24.08-10.77-24.08-24.08s10.77-24.08,24.08-24.08h441.64c13.31,0,24.08,10.77,24.08,24.08s-10.77,24.08-24.71,24.08Z" fill="#eb586f"/><path d="M816.44,412.12H375.44c-13.31,0-24.08-10.77-24.08-24.08s10.77-24.08,24.08-24.08h441.64c13.31,0,24.08,10.77,24.08,24.08s-10.77,24.08-24.71,24.08Z" fill="#eb586f"/><path d="M816.44,792.3H375.44c-13.31,0-24.08-10.77-24.08-24.08s10.77-24.08,24.08-24.08h441.64c13.31,0,24.08,10.77,24.08,24.08s-10.77,24.08-24.71,24.08Z" fill="#eb586f"/></g></svg>